Patient4_TMGait_0pt7_02_right_37_EMG.mot
version=1
nRows=33
nColumns=33
inDegrees=no
endheader
time	1LAddLong	2LGlutMax	3LGlutMed	4LIliopsoas	5LSemiMemb	6LBicFemLong	7LRecFem	8LVastMed	9LVastLat	10LGasMed	11LTibAnt	12lTibPost	13LPeroneusLong	14LSol	15LExtDigLong	16LFlexDigLong	17RAddLong	18RGlutMax	19RGlutMed	20RIliopsoas	21RSemiMemb	22RBicFemLong	23RRecFem	24RVastMed	25RVastLat	26RGasMed	27RTibAnt	28RTibPost	29RPeroneusLong	30RSol	31RExtDigLong	32RFlexDigLong
41.8	0.00412	0.008087	0.044403	0.001221	-0.053406	0.27863	0.11765	-0.001373	0.004425	0.28732	0.009155	0.001526	0.25665	-0.39307	-0.000916	-0.092316	-0.15808	-0.18051	0.45853	0.17548	-0.032654	0.054016	0.16037	0.056458	0.036316	-0.015564	0.094299	0.001831	0.1384	-0.041046	-0.00061	-0.005951
41.801	0.007172	-0.031128	0.081635	-0.003815	-0.097351	0.45471	0.10254	-0.006104	0.062103	0.022736	0.017395	0.033112	0.24963	-0.61706	0.01297	0.11704	-0.16083	-0.13855	0.37338	0.19623	-0.025482	0.04715	0.050812	-0.029297	0.033569	-0.018158	0.22812	0.007782	0.29709	-0.017853	-0.001526	-0.024872
41.802	0.008698	0.001221	0.066681	0.002289	-0.076599	0.41672	0.13031	-0.002899	0.036926	0.1416	-0.014496	-0.038605	0.21484	-0.61157	0.080566	0.043182	-0.17395	-0.089569	0.50049	0.28381	-0.024719	0.070343	-0.14038	-0.092163	0.012665	-0.016479	0.27878	0.011749	0.23666	-0.016937	-0.000763	-0.043793
41.803	0.004883	-0.011749	0.15747	0.003357	0.12512	0.33341	0.15228	-0.000458	0.027161	-0.26428	-0.03479	-0.02121	0.057983	-0.36362	0.093842	-0.06546	-0.16052	-0.096741	0.29327	0.30411	-0.018311	0.07019	-0.40955	-0.15747	-0.012207	-0.016479	0.19196	0.00412	-0.12085	-0.064545	-0.00351	-0.051575
41.804	0.005798	-0.00885	0.058899	-0.00351	0.16113	0.2272	0.14511	-0.007935	0.036926	-0.3775	-0.02655	0.024872	0.12619	-0.27435	0.049896	-0.35187	-0.13504	-0.087433	0.79315	0.21515	-0.032806	0.049744	-0.45532	-0.16556	0.017395	-0.018921	0.093231	0.002441	-0.00946	-0.090332	-0.004883	-0.040283
41.805	0.001068	-0.005493	-0.063934	-0.007782	0.06424	-0.21881	0.13214	-0.00351	0.024719	-0.22003	-0.050964	0.11185	0.038452	-0.26108	0.000305	0.006866	-0.10315	-0.036469	0.86975	0.093231	-0.013885	0.055084	-0.37766	-0.1326	0.034943	-0.02121	0.1712	0.008392	0.14511	-0.085602	-0.003357	-0.02243
41.806	0.015259	0.004578	-0.11169	0.005646	0.020905	-0.47409	0.076141	-0.005646	0.048065	-0.079956	-0.004272	-0.066833	0.02533	-0.002899	-0.031738	0.050049	-0.076904	-0.063019	-0.33432	0.029602	-0.019531	0.027313	-0.28488	-0.070648	0.030823	-0.02533	0.2124	0.00351	0.10529	-0.025482	-0.002441	-0.018463
41.807	0.02533	-0.029755	-0.15579	0.014801	-0.00061	-0.41824	0.067291	-0.011597	0.057068	-0.035858	-0.063171	-0.039673	0.04364	0.18341	-0.045929	-0.024414	-0.040894	-0.13565	-0.57205	-0.086517	-0.027313	0.046387	-0.22186	-0.058594	0.042419	-0.029449	0.19516	0.006714	-0.000153	0.018921	-0.002594	-0.019226
41.808	0.019684	-0.063629	-0.15762	0.003052	0.050201	-0.24033	0.10574	-0.002899	0.033569	0.03952	0.075073	0.003204	-0.56976	0.12482	-0.009308	-0.045929	-0.021515	-0.13367	-0.55771	-0.21545	-0.028992	0.027771	-0.091705	-0.028229	0.018921	-0.031586	0.21393	0.006561	-0.2507	0.068817	-0.002747	-0.037384
41.809	0.004425	-0.079498	-0.1648	-0.001831	0.025024	-0.22598	0.10513	0.003204	0.014038	0.10452	0.081635	0.003662	-0.072937	0.20004	-0.027313	-0.046234	-0.003052	-0.1387	-0.26062	-0.24292	-0.012665	0.025787	0.10895	-0.010376	0.019226	-0.031281	0.18509	0.008087	-0.23056	0.035095	-0.004578	-0.071106
41.81	-0.015106	-0.094757	-0.18341	-0.00824	-0.030823	-0.30411	0.11704	0.022583	-0.015717	0.069122	0.017395	0.002136	0.1918	0.27496	-0.015869	-0.038605	0.011597	-0.13733	-0.035553	-0.32028	-0.024109	0.022583	0.21164	0.049286	0.011597	-0.015717	0.00061	0.008087	-0.043488	-0.068665	-0.007019	-0.075378
41.811	0.005646	-0.092926	-0.17136	-0.00946	-0.06134	0.025177	0.08728	0.02182	-0.006409	-0.025024	-0.049438	-0.000916	0.20416	0.28961	-0.009155	-0.029602	0.012207	-0.093994	0.071716	-0.47073	-0.027618	0.013275	0.2272	0.06073	0.013428	-0.028687	0.027008	0.003052	-0.1535	-0.014648	-0.002289	-0.088196
41.812	0.019684	-0.078735	-0.075684	0.011444	-0.046692	0.096588	0.048218	-0.002899	0.02243	-0.052338	-0.032959	-0.008087	-0.38498	0.1152	-0.11063	-0.033112	0.014801	-0.033722	0.25711	-0.50079	-0.025635	-0.005035	0.18112	0.029755	-0.006561	-0.034027	0.20187	0.001831	-0.056915	-0.013428	0.001678	-0.075378
41.813	0.011444	-0.065155	0.084686	0.01709	0.004578	0.040741	0.011749	-0.006256	0.083008	-0.029755	0.005341	-0.005493	-0.21149	0.056763	-0.04303	-0.034332	0.005798	-0.008545	0.091248	-0.19959	-0.037842	0.006714	0.16983	0.024261	-0.016785	-0.034637	-0.22217	0.008545	0.035858	-0.022125	-0.002136	-0.052185
41.814	0.013275	-0.10117	0.19028	0.019531	-0.016785	0.080109	0.067291	-0.012665	0.077667	-0.016327	0.060272	0.007782	-0.084686	0.084839	0.041656	-0.01236	-0.011597	0.018005	0.030975	0.053711	-0.05127	0.014038	0.11368	-0.035858	-0.011444	-0.026703	-0.5394	0.006866	-0.11093	-0.023651	-0.002899	-0.043335
41.815	0.005341	-0.15442	0.004883	0.013123	0.02121	0.10483	0.077362	-0.017548	0.0383	-0.02655	0.065308	0.005035	0.15686	-0.077515	0.049133	-0.00351	0.0383	-0.016022	0.11368	0.3743	-0.050049	0.008087	0.14587	-0.079498	0.004425	-0.0177	-0.44022	0.007629	-0.072021	-0.085754	-0.003967	-0.026245
41.816	0.003204	-0.14053	-0.043793	-0.025024	0.12299	0.17654	0.099945	-0.009155	0.00412	-0.11612	0.029144	0.008698	0.22156	-0.12665	0.063934	0.000916	0.052643	0.035553	0.33524	0.44144	0.049591	0.069122	0.068817	-0.11673	0.001221	-0.010986	-0.38406	0.006256	-0.043793	-0.092773	-0.005798	-0.013885
41.817	0.002441	-0.12726	-0.034943	-0.007019	0.10895	-0.053864	0.12192	-0.056	-0.035095	0.03479	-0.058746	0.005951	0.21591	-0.073242	-0.001984	-0.00412	0.014343	0.0354	0.27145	0.21668	0.041046	0.097809	0.005493	-0.14786	0.016479	-0.007782	-0.007629	0.010529	-0.028839	-0.091248	0.006256	-0.019531
41.818	-0.007477	-0.1033	-0.12985	0.00885	-0.027161	-0.019836	0.10223	-0.018768	-0.069122	0.086212	-0.089264	-0.00412	0.022278	-0.033112	-0.072632	-0.007935	-0.007782	-0.025177	-0.044708	0.14481	-0.070648	0.049286	0.020294	-0.1831	0.02182	0.002441	-0.091553	0.008392	0.021667	-0.082245	-0.003662	-0.022888
41.819	-0.014496	-0.073853	-0.036163	0.023804	-0.14496	0.15152	0.1535	-0.003815	-0.065002	0.028992	-0.089569	0.006714	0.011139	0.023193	0.056	-0.010071	-0.014801	-0.050964	-0.095978	0.10239	-0.13412	0.069427	0.055847	-0.1915	0.018311	0.019684	-0.090637	0.010529	-0.10529	-0.055847	-0.008698	-0.03006
41.82	-0.001831	-0.055389	0.002289	0.018921	-0.18921	-0.13596	0.12054	0.004425	0.071716	0.017548	0.018005	0.010529	-0.017395	0.049133	0.15595	-0.001984	-0.023041	-0.10941	-0.13062	0.08606	-0.14862	0.058746	0.12161	-0.24857	0.014038	0.032959	0.027771	0.010834	-0.12421	-0.031738	-0.004272	-0.027313
41.821	-0.001526	-0.03006	0.080872	0.024261	-0.2005	-0.24933	0.084229	0.015106	0.27313	0.015869	0.074005	-0.006256	-0.17258	0.072632	0.14175	0.002594	-0.007477	-0.082703	-0.17838	0.040283	-0.13199	0.034943	0.19287	-0.20096	0.002289	0.042572	0.1622	0.011902	0.050049	-0.042725	-0.003357	-0.023193
41.822	-0.016327	0.019073	0.12924	0.004883	-0.10696	0.00351	0.013733	0.003815	0.39337	-0.10391	0.079651	-0.001526	-0.29312	0.066071	0.094147	-0.007172	0.10269	-0.094299	-0.21149	-0.01297	-0.06134	0.030518	0.21515	-0.18127	0.012665	0.046387	0.1648	0.014496	0.02594	0.003204	-0.005798	-0.003967
41.823	-0.011292	0.040588	0.044098	0.017395	-0.17273	0.10269	-0.042419	0.003967	0.27618	0.028534	-0.038605	-0.005493	-0.18372	0.026703	0.10437	0.19989	0.20416	-0.095215	-0.19012	-0.046844	0.095215	0.024109	0.24139	-0.12894	-0.010834	0.052338	0.045166	0.009155	-0.059204	-0.043335	-0.005341	0.003815
41.824	-0.005951	0.08255	-0.081024	0.002136	-0.24841	0.035858	-0.058136	0.012054	0.27298	0.27695	-0.10513	-0.007172	-0.059662	0.082092	0.13931	-1.0063	0.27039	-0.077209	0.077362	-0.11688	0.052948	-0.006409	0.14908	-0.11108	0.003357	0.055695	0.29816	0.015869	-0.086212	-0.046539	-0.00061	0.012665
41.825	0.009766	0.069885	-0.020142	0.002441	-0.11643	-0.11841	-0.047607	-0.012665	0.088806	0.63675	-0.014648	-0.009918	0.002441	0.13428	0.058746	0.112	0.22049	-0.031281	0.20844	-0.14526	-0.012054	-0.027161	0.13199	-0.13794	-0.023041	0.053711	0.49164	0.012665	-0.15243	-0.027466	-0.001678	0.021362
41.826	0.052338	0.047302	0.10483	0.000916	0.19959	-0.19501	0.063171	-0.029449	-0.24963	0.98618	-0.018768	0.010376	0.057526	0.084991	-0.16785	0.19501	0.13626	0.007782	0.063934	-0.08667	-0.028992	-0.042267	0.049286	-0.19211	-0.001831	0.053253	0.37888	0.016479	0.042877	-0.021973	-0.000916	0.023499
41.827	0.040588	0.075378	0.11337	0.016632	0.22614	-0.12833	0.16968	-0.033722	-0.24841	0.84549	-0.042725	0.010071	-0.009308	-0.007324	-0.22171	-0.33218	0.031738	0.029755	-0.022278	-0.014648	-0.023193	-0.037689	-0.03006	-0.16632	0.007019	0.05722	0.38101	0.021667	0.18509	-0.063324	-0.005341	0.032349
41.828	0.042877	0.042572	0.065308	0.019836	0.23193	-0.077362	0.17212	-0.017548	-0.19882	-0.45166	-0.020447	0.018158	-0.035858	0.023041	-0.11627	0.40802	-0.03067	-0.007019	-0.094147	0.13351	-0.023956	-0.028992	-0.06073	-0.18555	-0.001373	0.052185	0.037537	0.016937	0.10315	-0.048065	-0.003357	0.033875
41.829	0.044098	-0.00351	0.009613	0.012512	0.18951	0.066376	0.15732	-0.003662	-0.21988	-0.95047	-0.014954	0.023651	-0.026398	0.12695	-0.073547	0.35141	-0.12039	-0.03891	-0.16037	0.20447	-0.079956	-0.012512	-0.063477	-0.18555	-0.016327	0.038605	-0.35736	0.014801	-0.028076	-0.019989	0.000763	0.033112
41.83	0.029144	-0.04776	0.04715	0.018463	0.079193	0.11627	0.11932	-0.018311	-0.14481	-0.81482	-0.009308	0.011597	0.017242	0.14267	-0.028992	-0.25604	-0.16968	-0.018311	-0.25024	0.16541	-0.099335	0.003662	-0.084229	-0.093079	-0.001221	0.032043	-0.63873	0.012054	-0.015106	0.076141	-0.002594	0.027924
41.831	0.038605	-0.050964	0.027924	0.015869	0.050507	0.092468	0.078888	0.000305	-0.036469	-0.21637	0.014038	0.008698	0	-0.016327	-0.021515	-0.010529	-0.10391	0.005035	-0.31784	0.039368	-0.06546	0.037384	-0.095215	-0.007629	0.022125	0.030518	-0.99487	0.01297	0.29968	0.077972	0.000763	0.039978
41.832	0.035553	-0.014191	0.039825	0.016785	0.085754	0.053253	0.089417	-0.006866	-0.045013	0.035095	0.016937	0.032654	0.003204	-0.046997	-0.01358	-0.010071	-0.086517	0.063477	-0.46005	-0.16266	-0.042572	0.039215	-0.18768	-0.047913	0.037384	0.033112	-0.76477	0.011902	0.6192	0.007935	-0.002289	0.049438
